<?xml version="1.0" standalone="no"?>
<!DOCTYPE svg PUBLIC "-//W3C//DTD SVG 20010904//EN"
 "http://www.w3.org/TR/2001/REC-SVG-20010904/DTD/svg10.dtd">
<svg version="1.0" xmlns="http://www.w3.org/2000/svg"
 viewBox="0 0 512.000000 512.000000"
 preserveAspectRatio="xMidYMid meet">

<g transform="translate(0.000000,512.000000) scale(0.100000,-0.100000)"
fill="#000000" stroke="none">
<path d="M2541 4979 c-13 -5 -36 -23 -52 -40 -16 -17 -30 -32 -31 -33 -1 0 -4
-86 -7 -191 l-6 -190 -45 -7 c-25 -3 -79 -11 -120 -18 -151 -22 -192 -31 -206
-44 -7 -8 -33 -17 -56 -21 -24 -4 -61 -15 -83 -25 -22 -10 -58 -23 -79 -30
-38 -12 -88 -37 -221 -110 -130 -71 -145 -81 -145 -89 0 -5 -30 -28 -68 -52
-37 -24 -73 -52 -80 -61 -7 -10 -17 -18 -22 -18 -5 0 -60 51 -123 113 -62 62
-130 122 -150 135 -37 21 -97 30 -97 14 0 -4 -12 -13 -27 -20 -52 -24 -73 -48
-79 -95 -12 -82 -1 -106 91 -201 47 -49 85 -90 85 -93 0 -3 18 -22 41 -42 l40
-36 -55 -67 c-31 -36 -56 -70 -56 -76 0 -5 -9 -17 -20 -27 -11 -10 -20 -25
-20 -34 0 -9 -9 -22 -20 -29 -11 -7 -20 -18 -20 -26 0 -7 -6 -19 -14 -25 -8
-7 -17 -24 -21 -39 -4 -15 -10 -29 -13 -32 -10 -8 -90 -171 -97 -200 -3 -14
-10 -34 -15 -45 -9 -23 -61 -189 -78 -250 -10 -37 -23 -115 -40 -245 l-7 -55
-185 -5 -185 -5 -33 -30 c-36 -32 -62 -83 -62 -121 0 -52 53 -122 108 -145 13
-5 99 -9 191 -9 l168 0 7 -67 c11 -105 39 -255 56 -298 4 -11 17 -54 29 -95
13 -41 27 -83 32 -92 5 -10 9 -24 9 -31 0 -7 27 -66 60 -132 33 -66 60 -125
60 -132 0 -7 6 -16 13 -20 7 -4 18 -20 24 -35 7 -16 17 -28 23 -28 5 0 10 -6
10 -14 0 -8 18 -37 40 -65 22 -28 40 -53 40 -56 0 -3 12 -18 26 -33 47 -50 48
-57 4 -95 -22 -19 -40 -39 -40 -45 0 -7 -4 -12 -8 -12 -11 0 -129 -120 -152
-155 -22 -33 -27 -106 -10 -149 12 -33 98 -95 132 -96 42 0 198 116 198 148 0
6 8 13 18 16 9 3 33 26 52 51 47 59 62 63 107 26 21 -17 41 -31 44 -31 8 0 43
-28 89 -72 16 -14 39 -29 52 -33 13 -4 32 -15 43 -25 11 -9 36 -23 55 -30 19
-7 44 -21 55 -31 22 -19 108 -60 170 -79 22 -8 58 -21 80 -31 22 -10 58 -21
80 -25 22 -3 48 -13 57 -21 9 -9 64 -21 130 -30 62 -8 140 -20 173 -26 l60
-12 6 -190 c3 -105 6 -191 7 -191 1 -1 18 -18 37 -37 63 -63 148 -62 218 4
l42 38 5 188 5 187 50 12 c28 6 99 17 160 24 107 12 155 25 155 42 0 4 7 8 15
8 32 0 116 22 128 34 7 7 27 16 46 19 19 4 58 18 87 32 29 14 57 25 63 25 6 0
21 11 34 24 13 13 39 28 59 35 19 6 50 23 68 36 19 14 39 25 45 25 7 0 29 16
51 36 21 19 46 42 55 50 9 8 20 14 26 14 5 0 25 14 43 30 18 17 37 30 41 30
12 0 139 -127 139 -139 0 -6 5 -11 11 -11 6 0 27 -18 46 -40 20 -22 41 -40 47
-40 6 0 22 -9 36 -20 14 -11 35 -20 48 -20 21 0 60 17 72 31 3 3 15 11 26 17
29 15 54 71 54 120 0 46 -35 98 -133 197 -32 33 -75 77 -95 97 l-37 37 26 28
c14 15 43 53 65 83 21 30 42 56 46 58 5 2 8 11 8 21 0 9 8 26 18 37 33 38 61
82 68 108 3 14 10 26 14 26 5 0 11 13 15 30 4 16 11 32 16 36 13 8 51 93 74
164 10 30 24 73 31 95 8 23 14 50 14 61 0 11 4 24 8 30 20 22 54 184 68 317
l5 57 167 1 c184 1 195 3 240 39 38 30 73 123 54 142 -7 7 -12 21 -12 33 0 11
-11 30 -24 43 -51 48 -71 52 -253 52 l-172 0 -5 58 c-15 146 -56 327 -87 384
-5 10 -9 24 -9 32 0 36 -62 196 -100 256 -5 8 -23 44 -39 80 -34 72 -47 94
-73 122 -10 10 -18 25 -18 33 0 8 -4 15 -8 15 -4 0 -22 24 -40 53 -17 28 -45
66 -62 84 -16 18 -30 34 -30 37 0 3 52 58 115 123 63 64 122 132 130 149 22
47 19 105 -8 144 -23 34 -95 80 -126 80 -29 0 -104 -46 -140 -85 -17 -19 -36
-35 -41 -35 -6 0 -10 -5 -10 -10 0 -9 -83 -96 -122 -128 -14 -11 -26 -5 -84
38 -38 28 -81 61 -95 74 -15 14 -43 31 -63 40 -20 8 -36 19 -36 23 0 5 -23 17
-51 28 -28 11 -59 28 -69 37 -22 20 -102 58 -175 83 -27 9 -54 20 -60 25 -5 4
-36 13 -67 20 -32 6 -64 18 -72 25 -15 15 -72 27 -216 46 -47 6 -101 14 -120
18 l-35 7 -5 185 -5 186 -30 35 c-43 51 -123 72 -184 47z m-96 -1314 l0 -549
-50 -15 c-27 -9 -56 -23 -63 -33 -13 -18 -52 -25 -52 -10 0 13 -36 52 -48 52
-6 0 -13 9 -17 19 -3 11 -15 23 -26 26 -10 4 -26 20 -34 36 -9 16 -22 29 -30
29 -8 0 -15 4 -15 8 0 12 -61 76 -92 96 -16 10 -28 22 -28 26 0 6 -288 306
-328 342 -87 77 -141 148 -114 148 4 0 26 18 50 40 24 22 60 49 80 61 20 11
62 35 92 54 84 52 190 103 245 117 28 7 53 16 56 21 3 4 44 15 90 25 46 9 86
19 89 23 14 16 134 39 180 35 13 -1 15 -70 15 -551z m468 533 c20 -6 37 -15
37 -20 0 -4 12 -8 28 -8 36 -1 140 -26 155 -38 7 -5 35 -15 62 -21 28 -7 64
-21 81 -32 17 -10 38 -19 45 -19 8 0 36 -16 63 -35 27 -19 54 -35 59 -35 15 0
137 -83 186 -127 l44 -39 -36 -40 c-20 -21 -42 -46 -50 -54 -7 -8 -33 -31 -56
-50 -23 -19 -46 -45 -51 -58 -5 -12 -21 -27 -35 -32 -14 -5 -25 -13 -25 -18 0
-5 -47 -57 -105 -116 -58 -59 -105 -111 -105 -117 0 -5 -5 -9 -11 -9 -6 0 -73
-63 -149 -140 -76 -77 -142 -140 -146 -140 -4 0 -17 8 -28 19 -12 10 -42 24
-68 31 l-48 13 0 547 c0 301 2 549 5 552 8 8 105 -1 148 -14z m-1338 -854
c353 -362 476 -484 485 -484 19 0 16 -41 -6 -86 -13 -27 -28 -61 -33 -76 l-10
-28 -535 0 c-294 0 -537 3 -540 8 -2 4 -1 25 4 47 5 22 14 69 19 105 12 73 34
177 43 200 3 8 11 35 18 60 7 25 18 52 24 60 7 8 23 40 35 70 38 92 83 180 92
180 5 0 9 4 9 9 0 8 28 53 82 135 16 23 50 56 57 56 3 0 119 -116 256 -256z
m2335 243 c8 -7 35 -43 60 -82 24 -38 47 -72 50 -75 3 -3 11 -17 19 -32 8 -16
18 -28 23 -28 4 0 8 -8 8 -18 0 -10 4 -22 9 -27 13 -13 98 -206 117 -265 31
-95 78 -363 67 -382 -2 -5 -245 -8 -539 -8 -434 0 -534 2 -534 13 0 7 -11 35
-24 63 -40 85 -41 90 -5 121 18 15 51 47 73 70 23 24 91 94 151 156 61 63 121
128 135 145 14 18 29 32 34 32 11 0 86 77 86 89 0 5 12 17 27 26 14 10 47 40
72 68 25 27 59 61 75 76 16 14 38 36 49 49 23 25 26 26 47 9z m-1226 -769 c22
-7 47 -18 54 -25 7 -7 18 -13 23 -13 5 0 33 -24 61 -52 43 -43 57 -65 72 -118
33 -115 7 -227 -73 -308 -23 -23 -46 -42 -51 -42 -6 0 -20 -10 -32 -22 -21
-21 -32 -23 -137 -23 -84 0 -115 3 -119 13 -2 7 -20 21 -40 31 -116 60 -173
228 -125 366 17 47 109 155 132 155 5 0 16 6 24 14 33 33 139 45 211 24z
m-656 -500 c8 -24 20 -50 28 -59 26 -29 21 -69 -11 -92 -16 -12 -38 -33 -50
-46 -11 -14 -62 -67 -112 -118 -51 -52 -93 -98 -93 -104 0 -5 -6 -9 -14 -9 -7
0 -26 -17 -42 -37 -32 -43 -145 -153 -156 -153 -5 0 -8 -4 -8 -9 0 -14 -238
-251 -252 -251 -21 0 -32 12 -76 80 -23 36 -46 70 -52 77 -5 7 -10 15 -10 19
0 4 -8 17 -19 28 -15 17 -101 197 -101 212 0 2 11 4 25 4 52 0 74 20 93 84
l18 61 43 0 43 0 18 -58 c23 -75 34 -87 81 -87 29 0 39 5 44 20 14 45 -22 79
-53 48 -8 -8 -14 -5 -22 16 -16 43 -12 54 20 61 21 5 30 13 30 26 0 22 -8 24
-33 4 -41 -30 -48 -11 -51 143 l-1 52 -35 0 c-35 0 -36 -2 -54 -57 -31 -101
-51 -138 -75 -140 -13 -1 -29 -7 -37 -14 -8 -6 -37 -12 -65 -13 l-52 -1 -18
90 c-11 50 -24 119 -29 155 -5 36 -13 75 -16 88 l-6 22 543 0 544 0 13 -42z
m2239 20 c-3 -13 -9 -57 -13 -98 -3 -41 -9 -79 -13 -85 -3 -5 -11 -37 -18 -70
-22 -116 -39 -161 -140 -373 -14 -29 -39 -71 -54 -92 -16 -22 -29 -42 -29 -45
0 -3 -5 -11 -10 -18 -19 -22 -60 -88 -60 -95 0 -4 -10 -12 -22 -18 -21 -9 -41
8 -235 205 -117 118 -213 219 -213 223 0 4 -6 8 -14 8 -7 0 -20 10 -29 23 -8
12 -76 84 -151 159 -75 75 -136 140 -136 145 0 4 14 35 30 67 17 32 30 65 30
72 0 12 92 14 541 14 l541 0 -5 -22z m-2994 -245 l7 -63 -28 0 c-38 0 -42 5
-30 48 9 33 38 86 43 80 1 -2 5 -31 8 -65z m-114 -106 c-35 -72 -45 -87 -66
-98 -19 -10 -26 -9 -43 6 -11 10 -20 24 -20 32 0 17 8 17 27 -2 24 -25 47 -13
61 30 7 21 18 45 24 52 16 20 29 5 17 -20z m1177 -26 c13 -10 44 -25 69 -32
l45 -13 0 -549 0 -549 -77 7 c-43 4 -91 13 -108 20 -34 15 -153 45 -178 45 -9
0 -17 4 -17 8 0 4 -21 14 -47 21 -75 21 -237 103 -327 164 -21 15 -42 27 -46
27 -3 0 -30 22 -60 49 l-53 48 29 34 c16 19 57 61 92 95 34 33 62 66 62 72 0
7 4 12 9 12 5 0 35 27 67 61 127 132 328 329 336 329 4 0 13 10 19 22 17 31
131 145 147 147 8 0 25 -7 38 -18z m604 -6 c5 -14 17 -28 26 -32 8 -3 32 -23
52 -45 90 -95 175 -178 183 -178 5 0 9 -4 9 -9 0 -5 74 -84 165 -176 91 -92
165 -170 165 -174 0 -4 14 -15 30 -24 17 -10 30 -21 30 -25 0 -4 16 -24 35
-45 l35 -38 -29 -27 c-40 -38 -80 -72 -86 -72 -3 0 -28 -16 -56 -35 -28 -19
-56 -35 -61 -35 -5 0 -28 -13 -51 -28 -55 -38 -121 -68 -188 -88 -30 -9 -58
-19 -64 -24 -5 -4 -46 -15 -90 -25 -44 -10 -85 -22 -90 -26 -12 -9 -127 -29
-167 -29 l-28 0 0 548 0 548 53 19 c28 10 58 25 65 32 22 21 52 15 62 -12z
m-1850 -4 c0 -6 -4 -13 -10 -16 -5 -3 -10 1 -10 9 0 9 5 16 10 16 6 0 10 -4
10 -9z"/>
<path d="M2145 4033 c-63 -72 -92 -115 -104 -150 -12 -37 -12 -46 3 -77 9 -19
28 -44 43 -55 22 -18 25 -26 20 -57 -7 -43 -4 -39 -41 -48 -26 -6 -27 -6 -12
9 33 34 17 85 -28 85 -57 0 -74 -44 -35 -94 16 -21 29 -26 64 -26 50 0 80 28
91 86 3 19 10 34 15 34 13 0 11 38 -2 46 -6 4 -9 21 -6 43 3 20 8 63 10 96 3
33 8 75 12 93 8 36 -5 43 -30 15z m-20 -90 c-4 -16 -10 -62 -14 -103 l-6 -75
-18 37 c-17 34 -17 40 -3 82 24 70 56 116 41 59z m-77 -246 c2 -9 -2 -17 -9
-17 -7 0 -9 3 -6 7 4 3 1 13 -6 21 -10 13 -9 14 3 10 8 -2 16 -12 18 -21z"/>
<path d="M2892 3987 c-22 -24 -28 -62 -14 -85 15 -23 73 -33 104 -18 27 14 28
14 28 -12 0 -14 -12 -73 -26 -130 -27 -109 -26 -132 4 -132 19 0 32 38 32 97
0 12 5 34 11 50 l11 28 12 -25 c24 -55 78 -120 103 -126 56 -14 111 51 64 75
-25 14 -51 4 -51 -20 0 -12 7 -19 20 -19 23 0 27 -15 6 -23 -16 -6 -45 24 -69
73 -10 19 -25 47 -34 61 -16 25 -15 27 10 60 14 19 46 56 71 83 25 27 43 52
40 57 -13 21 -35 5 -84 -61 -63 -86 -83 -91 -74 -20 6 46 4 51 -24 80 -40 39
-106 43 -140 7z m68 6 c0 -4 -12 -17 -26 -28 -24 -19 -25 -23 -13 -43 7 -12
20 -23 29 -24 10 -2 11 -6 4 -10 -19 -12 -54 21 -54 50 0 31 9 47 30 55 22 8
30 8 30 0z m40 -13 c0 -5 -7 -10 -15 -10 -8 0 -15 5 -15 10 0 6 7 10 15 10 8
0 15 -4 15 -10z m-40 -35 c-7 -8 -17 -12 -22 -9 -6 4 -5 10 3 15 22 14 33 10
19 -6z m255 -255 c3 -5 -1 -10 -10 -10 -9 0 -13 5 -10 10 3 6 8 10 10 10 2 0
7 -4 10 -10z"/>
<path d="M1190 3219 c19 -34 9 -195 -15 -261 -27 -75 -40 -88 -62 -65 -16 16
-16 17 10 17 27 0 33 11 27 50 -5 36 -63 41 -85 6 -38 -58 51 -135 109 -93 24
17 56 109 61 172 2 28 4 59 5 70 2 21 24 -72 40 -170 5 -35 16 -65 26 -72 21
-15 35 -8 27 13 -3 9 -1 32 5 52 40 139 67 222 73 222 4 0 7 -51 7 -114 0
-123 6 -144 46 -165 36 -20 56 -8 56 34 0 32 -2 35 -29 35 -26 0 -30 4 -35 38
-6 32 -2 168 6 227 2 15 -3 20 -22 20 -29 0 -54 -44 -92 -157 -23 -71 -34 -83
-42 -45 -40 188 -48 207 -93 207 -31 0 -33 -2 -23 -21z m-80 -259 c0 -5 -4
-10 -10 -10 -5 0 -10 5 -10 10 0 6 5 10 10 10 6 0 10 -4 10 -10z"/>
<path d="M3758 3133 c-10 -2 -18 -12 -18 -20 0 -33 -64 -184 -76 -179 -6 2
-24 -2 -39 -10 -15 -8 -42 -14 -60 -14 -44 0 -67 -28 -63 -76 2 -29 9 -41 33
-55 36 -21 68 -23 98 -6 30 17 35 24 53 85 l16 53 40 -3 c39 -3 41 -5 57 -53
26 -80 37 -95 74 -95 39 0 57 15 57 47 0 28 -26 41 -50 25 -16 -10 -20 -7 -29
20 -14 40 -14 56 2 55 35 -1 47 5 47 23 0 22 -10 26 -27 9 -6 -6 -19 -9 -29
-7 -18 3 -27 50 -28 156 -1 55 -6 59 -58 45z m16 -140 l7 -63 -36 0 c-33 0
-36 2 -30 23 4 12 9 31 12 42 6 23 33 69 37 63 2 -1 6 -31 10 -65z m-104 -78
c0 -17 -34 -85 -43 -85 -6 0 -7 -3 -4 -6 7 -8 -36 -44 -52 -44 -15 0 -44 47
-36 60 4 6 14 2 25 -12 24 -29 52 -15 61 30 7 33 25 62 40 62 5 0 9 -2 9 -5z
m-83 -77 c-3 -7 -5 -2 -5 12 0 14 2 19 5 13 2 -7 2 -19 0 -25z"/>
<path d="M2579 2647 c-14 -11 -14 -14 1 -29 13 -14 15 -28 9 -75 -4 -32 -8
-81 -8 -110 -1 -47 -4 -52 -28 -61 -23 -9 -15 -10 47 -11 73 0 74 0 43 14
l-33 14 0 115 c0 66 4 117 10 121 6 4 5 12 -4 21 -17 17 -17 17 -37 1z"/>
<path d="M2640 2626 c0 -3 9 -10 20 -16 11 -6 20 -8 20 -6 0 3 -9 10 -20 16
-11 6 -20 8 -20 6z"/>
<path d="M2520 2610 c-8 -5 -10 -10 -5 -10 6 0 17 5 25 10 8 5 11 10 5 10 -5
0 -17 -5 -25 -10z"/>
<path d="M2467 2585 c-4 -8 -2 -17 3 -20 6 -4 10 0 10 9 0 8 6 17 13 19 7 4 6
6 -4 6 -9 1 -19 -6 -22 -14z"/>
<path d="M2701 2597 c2 -1 12 -9 22 -16 14 -12 17 -11 17 3 0 10 -8 16 -22 16
-12 0 -19 -1 -17 -3z"/>
<path d="M2490 2536 c0 -8 4 -17 9 -20 5 -4 7 3 4 14 -6 23 -13 26 -13 6z"/>
<path d="M2441 2524 c0 -11 3 -14 6 -6 3 7 2 16 -1 19 -3 4 -6 -2 -5 -13z"/>
<path d="M2514 2488 c5 -15 -1 -18 -38 -18 -26 0 -46 5 -49 13 -3 7 -6 5 -6
-5 -2 -34 59 -49 92 -23 15 11 17 17 7 32 -10 16 -11 16 -6 1z"/>
<path d="M2720 2470 c-50 -5 -53 -6 -33 -17 28 -17 55 -16 79 1 26 19 18 22
-46 16z"/>
<path d="M3587 2265 c-22 -16 -26 -77 -6 -101 32 -39 104 16 76 59 -12 18 -35
20 -29 3 5 -16 -8 -56 -18 -56 -18 0 -22 49 -7 80 17 33 12 37 -16 15z"/>
<path d="M3667 2241 c14 -36 14 -44 -1 -88 -24 -69 -32 -212 -13 -237 8 -11
19 -16 26 -12 20 12 43 67 43 102 0 41 19 69 42 61 15 -6 20 -35 16 -98 -1
-27 38 -69 66 -69 18 0 54 49 54 73 0 16 -5 19 -30 14 -27 -6 -30 -4 -40 31
-5 20 -14 44 -19 51 -7 10 -3 24 12 45 15 21 21 45 22 81 0 48 -1 51 -38 69
-33 16 -42 17 -63 5 -20 -10 -29 -10 -44 -1 -11 7 -26 12 -34 12 -12 0 -12 -6
1 -39z m125 -20 c24 -60 7 -121 -33 -121 -19 0 -24 13 -32 87 -4 35 -1 45 17
57 30 21 31 20 48 -23z m-111 -214 c-4 -61 -11 -59 -11 3 0 29 3 50 7 46 4 -4
6 -26 4 -49z m189 -51 c0 -8 -4 -17 -9 -21 -12 -7 -24 12 -16 25 9 15 25 12
25 -4z"/>
<path d="M2174 1493 c-3 -16 -14 -46 -24 -68 -10 -22 -21 -55 -25 -72 -5 -28
-11 -33 -35 -33 -15 0 -33 -7 -41 -16 -7 -8 -21 -13 -32 -10 -49 12 -95 -39
-82 -91 6 -27 52 -53 93 -53 44 0 75 31 92 92 16 52 16 53 56 55 l41 1 17 -58
c22 -73 53 -104 94 -95 33 7 47 37 31 67 -11 20 -34 24 -44 8 -11 -18 -23 -11
-34 21 -12 35 -7 49 17 49 28 0 45 17 38 35 -6 17 -7 17 -26 0 -33 -30 -44
-14 -55 79 -6 48 -7 90 -3 92 20 13 4 24 -32 24 -35 0 -40 -3 -46 -27z m38
-171 c-3 -9 -13 -11 -31 -7 -14 4 -27 8 -29 10 -7 7 21 91 36 109 16 17 17 15
23 -40 3 -33 3 -65 1 -72z m-112 -33 c0 -22 -32 -77 -60 -104 l-28 -27 -21 21
c-12 12 -21 28 -21 38 0 15 1 15 18 0 24 -22 51 -22 59 1 20 56 33 82 42 82 6
0 11 -5 11 -11z m-70 -48 c0 -6 -4 -13 -10 -16 -5 -3 -10 1 -10 9 0 9 5 16 10
16 6 0 10 -4 10 -9z"/>
<path d="M2864 1467 c-26 -23 -26 -24 -10 -56 14 -26 22 -32 44 -29 35 4 45
47 13 55 -29 7 -26 21 4 29 18 4 32 1 45 -11 25 -23 25 -35 -1 -86 -16 -30
-23 -65 -27 -134 -4 -85 -3 -94 17 -114 26 -26 58 -27 66 -1 8 25 17 25 41 -1
27 -30 87 -21 128 20 23 24 31 40 32 73 1 24 5 59 8 78 4 23 0 54 -11 90 -29
86 -104 123 -176 85 -25 -13 -31 -12 -60 5 -42 26 -80 25 -113 -3z m248 -12
c39 -16 53 -43 64 -118 10 -74 -4 -153 -33 -187 -26 -32 -39 -36 -63 -20 -13
9 -13 11 0 20 17 11 6 26 -25 32 -11 2 -19 10 -17 17 12 55 13 136 2 182 -12
50 -12 53 10 71 27 22 20 21 62 3z m-113 -137 c1 -35 -1 -92 -5 -128 -7 -64
-7 -65 -20 -35 -16 36 -18 131 -4 140 6 3 10 17 10 30 0 22 9 55 15 55 1 0 3
-28 4 -62z"/>
</g>
</svg>
